<svg width="64" height="50" viewBox="0 0 64 50" fill="none" xmlns="http://www.w3.org/2000/svg">
<path d="M63.9187 34.1965L32 49.6552L0.0813034 34.1965C0.0813034 34.1965 -3.20444 0 32 0C67.2044 0 63.9187 34.1965 63.9187 34.1965Z" fill="white"/>
<path fill-rule="evenodd" clip-rule="evenodd" d="M20.9731 24.2229C20.9731 24.2229 21.0654 23.8535 21.5271 24.3152C21.5937 24.3818 21.6307 24.8611 21.6838 25.549C21.7889 26.9104 21.9571 29.089 22.5429 30.5022C23.7122 33.323 25.9596 34.5652 25.9596 34.5652C25.9596 34.5652 25.6825 32.2105 27.8064 31.1485C29.7824 30.1605 31.3188 31.5705 31.5232 31.7716C31.7275 31.5705 33.2639 30.1605 35.2399 31.1485C37.3638 32.2105 37.0868 34.5652 37.0868 34.5652C37.0868 34.5652 39.3341 33.323 40.5034 30.5022C41.0892 29.089 41.2574 26.9104 41.3625 25.549C41.4156 24.8611 41.4526 24.3818 41.5192 24.3152C41.9809 23.8535 42.0732 24.2229 42.0732 24.2229C42.248 28.6876 40.9651 35.3963 40.6881 35.858C40.4118 36.3187 34.8958 43.6734 31.5232 42.6065C28.1505 43.6734 22.6345 36.3187 22.3582 35.858C22.0812 35.3963 20.7983 28.6876 20.9731 24.2229ZM27.6217 33.7341H31.5H31.5463H35.4246C35.4246 33.7341 36.9021 34.7499 35.8864 36.6891C34.8706 38.6283 33.1161 38.3512 33.1161 38.3512V35.7657H31.5463H31.5H29.9302V38.3512C29.9302 38.3512 28.1757 38.6283 27.16 36.6891C26.1442 34.7499 27.6217 33.7341 27.6217 33.7341Z" fill="black"/>
<path d="M46.3671 21.0833C46.4903 21.0833 46.7365 21.1571 46.7365 21.4526C46.7365 21.7481 46.4903 21.822 46.3671 21.822H31.8694H24.0203H16.4482C16.3251 21.822 16.0789 21.7481 16.0789 21.4526C16.0789 21.1571 16.3251 21.0833 16.4482 21.0833H24.3897H32.3311H46.3671Z" fill="#FCE300"/>
<path fill-rule="evenodd" clip-rule="evenodd" d="M32.3311 21.0833H24.3897H16.4482C16.3251 21.0833 16.0789 21.1571 16.0789 21.4526C16.0789 21.7481 16.3251 21.822 16.4482 21.822H24.0203H31.8694L32.3311 21.0833Z" fill="#FF0000"/>
<path fill-rule="evenodd" clip-rule="evenodd" d="M16.4482 21.0833H24.3897L24.0203 21.822H16.4482C16.3251 21.822 16.0789 21.7481 16.0789 21.4526C16.0789 21.1571 16.3251 21.0833 16.4482 21.0833Z" fill="black"/>
<path d="M44.1509 22.5608C44.3972 22.5916 44.7419 22.7639 44.1509 23.2072C43.4122 23.7612 39.4415 24.777 31.5 24.8693C31.1049 24.8739 30.7161 24.8738 30.334 24.8693C27.28 24.8338 24.651 24.5232 22.6351 24.1574C20.8469 23.8329 19.5411 23.465 18.8491 23.2072C18.6644 23.1384 18.332 22.5608 18.8491 22.5608H23.4662H31.5H44.1509Z" fill="#FCE300"/>
<path fill-rule="evenodd" clip-rule="evenodd" d="M31.5 22.5608L30.334 24.8693C27.28 24.8338 24.651 24.5232 22.6351 24.1574C20.8469 23.8329 19.5411 23.465 18.8491 23.2072C18.6644 23.1384 18.332 22.5608 18.8491 22.5608H23.4662H31.5Z" fill="#FF0000"/>
<path fill-rule="evenodd" clip-rule="evenodd" d="M18.8491 23.2072C19.5411 23.465 20.8469 23.8329 22.6351 24.1574L23.4662 22.5608H18.8491C18.332 22.5608 18.6644 23.1384 18.8491 23.2072Z" fill="black"/>
<path d="M33.8085 6.40088C34.1779 6.43166 34.9166 6.6225 34.9166 7.13962V16.1892V16.5585C34.9474 16.7432 35.1013 17.1126 35.4707 17.1126H44.6126L45.536 20.1599H32.8851H24.6666H17.3716L18.1103 17.1126H26.1441H27.2522C27.4677 17.1126 27.9171 17.0018 27.9909 16.5585C28.0238 16.3614 28.0335 15.0616 28.0315 13.4189C28.0289 11.3672 28.008 8.78065 27.9909 7.13962C28.0833 6.89337 28.3973 6.40088 28.9144 6.40088H31.6846H33.8085Z" fill="#FCE300"/>
<path fill-rule="evenodd" clip-rule="evenodd" d="M34.9166 7.13962C34.9166 6.6225 34.1779 6.43166 33.8085 6.40088H31.6846H28.9144C28.3973 6.40088 28.0833 6.89337 27.9909 7.13962C28.008 8.78065 28.0289 11.3672 28.0315 13.4189C28.0335 15.0616 28.0238 16.3614 27.9909 16.5585C27.9171 17.0018 27.4677 17.1126 27.2522 17.1126H26.1441H18.1103L17.3716 20.1599H24.6666H32.8851L34.9166 16.1892V7.13962Z" fill="#FF0000"/>
<path fill-rule="evenodd" clip-rule="evenodd" d="M28.9144 6.40088H31.6846L28.0315 13.4189C28.0289 11.3672 28.008 8.78065 27.9909 7.13962C28.0833 6.89337 28.3973 6.40088 28.9144 6.40088ZM18.1103 17.1126H26.1441L24.6666 20.1599H17.3716L18.1103 17.1126Z" fill="black"/>
<path d="M27.3445 7.04736V15.3582C27.4061 15.666 27.3815 16.2816 26.7905 16.2816H19.7725C19.8648 14.0654 21.5085 9.11583 27.3445 7.04736Z" fill="black"/>
<path d="M35.5859 6.95483C36.8893 7.41681 37.9836 8.02249 38.8982 8.70934L35.5859 14.8963V6.95483Z" fill="#FF0000"/>
<path d="M36.1399 16.1891C35.549 16.1891 35.5243 15.5735 35.5859 15.2656V14.8963L38.8982 8.70934C42.0787 11.0978 43.0862 14.4678 43.158 16.1891H36.1399Z" fill="#FCE300"/>
</svg>
