<svg id="Capa_1" enable-background="new 0 0 510 510" height="512" viewBox="0 0 510 510" width="512" xmlns="http://www.w3.org/2000/svg"><g><path d="m315 405-13.924-15h-61.076v-90h-30v120h91.076z" fill="#cadbfd"/><g><path d="m46.484 386.243c-28.07 15.572-46.484 45.322-46.484 78.757v45h90l11-60-11-45-19.334-18.757z" fill="#67ccff"/><path d="m180 465c0-33.406-18.389-63.171-46.484-78.757h-24.182l-19.334 18.757v105h90c0-10.492 0-34.508 0-45z" fill="#499aee"/><path d="m30 345c0 33.083 26.915 60 60 60l15-60-15-60c-33.083 0-60 26.915-60 60z" fill="#ffdbca"/><path d="m150 345c0-33.083-26.915-60-60-60v120c33.083 0 60-26.915 60-60z" fill="#fdbdb1"/></g><g><g><path d="m270 90-30 15-30-15c0-10.889 0-79.039 0-90h60l15 45z" fill="#fdd82e"/><path d="m330 90-30 15-30-15c0-10.889 0-79.039 0-90h60z" fill="#fbbd00"/></g><g><path d="m420 90-30 15-30-15c0-10.889 0-79.039 0-90h60l15 45z" fill="#fdd82e"/><path d="m480 90-30 15-30-15c0-10.889 0-79.039 0-90h60z" fill="#fbbd00"/></g><path d="m180 90v30h165l15-15-15-15z" fill="#0a617d"/><path d="m345 90h165v30h-165z" fill="#08475e"/></g><g><g><path d="m270 240-30 15-30-15c0-10.889 0-79.039 0-90h60l15 45z" fill="#fdd82e"/><path d="m330 240-30 15-30-15c0-10.889 0-79.039 0-90h60z" fill="#fbbd00"/></g><g><path d="m420 240-30 15-30-15c0-10.889 0-79.039 0-90h60l15 45z" fill="#fdd82e"/><path d="m480 240-30 15-30-15c0-10.889 0-79.039 0-90h60z" fill="#fbbd00"/></g><path d="m180 240v30h165l15-15-15-15z" fill="#0a617d"/><path d="m345 240h165v30h-165z" fill="#08475e"/></g><path d="m300 405c0 57.897 47.102 105 105 105l15-105-15-105c-57.898 0-105 47.103-105 105z" fill="#2ef2b1"/><path d="m405 300v210c57.897 0 105-47.103 105-105s-47.103-105-105-105z" fill="#0cc3aa"/><path d="m397.5 406.287-19.394-19.393-21.212 21.212 40.606 40.607 7.5-7.5 15-36.213-15-6.213z" fill="#e4f0fd"/><path d="m431.894 371.894-26.894 26.893v42.426l48.106-48.107z" fill="#cadbfd"/></g></svg>