<svg width="34" height="26" viewBox="0 0 34 26" fill="none" xmlns="http://www.w3.org/2000/svg">
<path d="M28.5045 21.8969C28.5045 22.2915 28.233 22.5759 27.8434 22.5759C27.442 22.5759 27.1823 22.2741 27.1823 21.8969C27.1823 21.5196 27.442 21.2179 27.8434 21.2179C28.233 21.2179 28.5045 21.5196 28.5045 21.8969ZM10.1587 21.2179C9.73958 21.2179 9.49757 21.5196 9.49757 21.8969C9.49757 22.2741 9.73958 22.5759 10.1587 22.5759C10.5424 22.5759 10.8021 22.2915 10.8021 21.8969C10.7962 21.5196 10.5424 21.2179 10.1587 21.2179ZM17.0944 21.2004C16.7757 21.2004 16.5809 21.4036 16.5337 21.7054H17.6611C17.608 21.3746 17.4014 21.2004 17.0944 21.2004ZM23.4576 21.2179C23.0562 21.2179 22.8142 21.5196 22.8142 21.8969C22.8142 22.2741 23.0562 22.5759 23.4576 22.5759C23.859 22.5759 24.1187 22.2915 24.1187 21.8969C24.1187 21.5196 23.859 21.2179 23.4576 21.2179ZM29.7087 22.7326C29.7087 22.75 29.7264 22.7616 29.7264 22.7964C29.7264 22.8138 29.7087 22.8254 29.7087 22.8603C29.691 22.8777 29.691 22.8893 29.6792 22.9067C29.6615 22.9241 29.6497 22.9357 29.6142 22.9357C29.5965 22.9531 29.5847 22.9531 29.5493 22.9531C29.5316 22.9531 29.5198 22.9531 29.4844 22.9357C29.4667 22.9357 29.4549 22.9183 29.4372 22.9067C29.4194 22.8893 29.4076 22.8777 29.4076 22.8603C29.3899 22.8312 29.3899 22.8138 29.3899 22.7964C29.3899 22.7674 29.3899 22.75 29.4076 22.7326C29.4076 22.7036 29.4253 22.6862 29.4372 22.6687C29.4549 22.6513 29.4667 22.6513 29.4844 22.6397C29.5139 22.6223 29.5316 22.6223 29.5493 22.6223C29.5788 22.6223 29.5965 22.6223 29.6142 22.6397C29.6437 22.6571 29.6615 22.6571 29.6792 22.6687C29.6969 22.6804 29.691 22.7036 29.7087 22.7326ZM29.5788 22.8138C29.6083 22.8138 29.6083 22.7964 29.626 22.7964C29.6437 22.779 29.6437 22.7674 29.6437 22.75C29.6437 22.7326 29.6437 22.721 29.626 22.7036C29.6083 22.7036 29.5965 22.6862 29.5611 22.6862H29.4667V22.8893H29.5139V22.808H29.5316L29.5965 22.8893H29.6437L29.5788 22.8138V22.8138ZM34 2.78571V23.2143C34 24.7522 32.7309 26 31.1667 26H2.83333C1.2691 26 0 24.7522 0 23.2143V2.78571C0 1.24777 1.2691 0 2.83333 0H31.1667C32.7309 0 34 1.24777 34 2.78571ZM3.77778 10.8875C3.77778 15.3272 7.4434 18.9254 11.9531 18.9254C13.5587 18.9254 15.1347 18.4496 16.4687 17.5848C12.1656 14.1433 12.1951 7.64911 16.4687 4.20759C15.1347 3.33705 13.5587 2.86696 11.9531 2.86696C7.4434 2.86116 3.77778 6.46518 3.77778 10.8875ZM17 17.2018C21.1615 14.0098 21.1437 7.78839 17 4.57902C12.8562 7.78839 12.8385 14.0156 17 17.2018ZM8.60035 21.6299C8.60035 21.125 8.26389 20.7942 7.73264 20.7768C7.46111 20.7768 7.17187 20.858 6.97708 21.154C6.83542 20.9161 6.5934 20.7768 6.25694 20.7768C6.03264 20.7768 5.80833 20.858 5.63125 21.0902V20.8348H5.14722V22.9647H5.63125C5.63125 21.8679 5.48368 21.2121 6.1625 21.2121C6.76458 21.2121 6.64653 21.804 6.64653 22.9647H7.11285C7.11285 21.9027 6.96528 21.2121 7.6441 21.2121C8.24618 21.2121 8.12812 21.7924 8.12812 22.9647H8.61215V21.6299H8.60035ZM11.2507 20.8348H10.7844V21.0902C10.625 20.8987 10.4007 20.7768 10.0937 20.7768C9.48576 20.7768 9.01944 21.2527 9.01944 21.8969C9.01944 22.5469 9.48576 23.017 10.0937 23.017C10.4007 23.017 10.625 22.9067 10.7844 22.7036V22.9705H11.2507V20.8348ZM13.6413 22.3205C13.6413 21.45 12.2896 21.8446 12.2896 21.4384C12.2896 21.1076 12.992 21.1598 13.3816 21.3746L13.5764 20.9973C13.0215 20.6433 11.7937 20.6491 11.7937 21.4732C11.7937 22.3031 13.1455 21.9549 13.1455 22.3437C13.1455 22.7094 12.3486 22.6804 11.9236 22.3902L11.717 22.7558C12.3781 23.1969 13.6413 23.104 13.6413 22.3205V22.3205ZM15.7309 22.8603L15.601 22.4656C15.3767 22.5875 14.8809 22.721 14.8809 22.2277V21.2643H15.6542V20.8348H14.8809V20.1848H14.3969V20.8348H13.9483V21.2585H14.3969V22.2277C14.3969 23.2491 15.4181 23.0634 15.7309 22.8603V22.8603ZM16.516 22.0826H18.1392C18.1392 21.1424 17.7024 20.771 17.1122 20.771C16.4865 20.771 16.0378 21.2295 16.0378 21.8911C16.0378 23.0808 17.3719 23.2781 18.033 22.7152L17.8087 22.367C17.3483 22.7384 16.6517 22.7036 16.516 22.0826V22.0826ZM20.0045 20.8348C19.733 20.7187 19.3198 20.7304 19.1073 21.0902V20.8348H18.6233V22.9647H19.1073V21.7634C19.1073 21.0902 19.6681 21.1772 19.8628 21.2759L20.0045 20.8348V20.8348ZM20.6302 21.8969C20.6302 21.2353 21.3149 21.0205 21.8521 21.4094L22.0764 21.0321C21.3917 20.504 20.1462 20.7942 20.1462 21.9027C20.1462 23.0518 21.4684 23.2839 22.0764 22.7732L21.8521 22.396C21.309 22.7732 20.6302 22.5469 20.6302 21.8969ZM24.5674 20.8348H24.0833V21.0902C23.5934 20.4518 22.3184 20.8116 22.3184 21.8969C22.3184 23.0112 23.6406 23.3304 24.0833 22.7036V22.9705H24.5674V20.8348V20.8348ZM26.5566 20.8348C26.4149 20.7652 25.9073 20.6665 25.6594 21.0902V20.8348H25.1931V22.9647H25.6594V21.7634C25.6594 21.125 26.1906 21.1656 26.4149 21.2759L26.5566 20.8348V20.8348ZM28.9354 19.9701H28.4691V21.0902C27.9851 20.4576 26.7042 20.7942 26.7042 21.8969C26.7042 23.0228 28.0323 23.3246 28.4691 22.7036V22.9705H28.9354V19.9701ZM29.384 15.6116V15.8786H29.4312V15.6116H29.5434V15.5652H29.2719V15.6116H29.384V15.6116ZM29.7736 22.7964C29.7736 22.7674 29.7736 22.7326 29.7559 22.7036C29.7382 22.6862 29.7264 22.6571 29.7087 22.6397C29.691 22.6223 29.6615 22.6107 29.6437 22.5933C29.6142 22.5933 29.5788 22.5759 29.5493 22.5759C29.5316 22.5759 29.5021 22.5933 29.4667 22.5933C29.4372 22.6107 29.4194 22.6223 29.4017 22.6397C29.3722 22.6571 29.3545 22.6862 29.3545 22.7036C29.3368 22.7326 29.3368 22.7674 29.3368 22.7964C29.3368 22.8138 29.3368 22.8429 29.3545 22.8777C29.3545 22.8951 29.3722 22.9241 29.4017 22.9415C29.4194 22.9589 29.4312 22.9705 29.4667 22.9879C29.4962 23.0054 29.5316 23.0054 29.5493 23.0054C29.5788 23.0054 29.6142 23.0054 29.6437 22.9879C29.6615 22.9705 29.691 22.9589 29.7087 22.9415C29.7264 22.9241 29.7382 22.8951 29.7559 22.8777C29.7736 22.8429 29.7736 22.8138 29.7736 22.7964ZM29.9625 15.5594H29.8799L29.7854 15.7625L29.691 15.5594H29.6083V15.8728H29.6556V15.6348L29.75 15.8379H29.8149L29.8976 15.6348V15.8728H29.9625V15.5594V15.5594ZM30.2222 10.8875C30.2222 6.46518 26.5566 2.86116 22.0469 2.86116C20.4413 2.86116 18.8653 3.33705 17.5312 4.20179C21.7872 7.6433 21.8521 14.1549 17.5312 17.579C18.8653 18.4496 20.4531 18.9196 22.0469 18.9196C26.5566 18.9254 30.2222 15.3272 30.2222 10.8875V10.8875Z" fill="#E5E5E5"/>
</svg>
