<svg width="34" height="26" viewBox="0 0 34 26" fill="none" xmlns="http://www.w3.org/2000/svg">
<path fill-rule="evenodd" clip-rule="evenodd" d="M0 3C0 1.34315 1.34315 0 3 0H31C32.6569 0 34 1.34315 34 3V23C34 24.6569 32.6569 26 31 26H3C1.34315 26 0 24.6569 0 23V3ZM4.30908 8.6488V17.3647H7.11032V12.2258H7.33237L8.93796 17.3647H10.9193L12.5591 12.2258H12.7811V17.3647H15.5824V8.6488H12.6786C11.7494 8.6488 11.3008 9.48848 11.1926 9.90833C10.9136 10.8096 10.3215 12.7632 10.1848 13.3678C10.0482 13.9724 9.90017 13.922 9.84323 13.8212C9.58133 12.9592 8.97895 10.9697 8.66467 9.90833C8.35038 8.84697 7.45193 8.62641 7.042 8.6488H4.30908ZM19.6474 8.64881H16.7778V17.3815H19.6474V8.64881ZM20.8603 12.6289H29.5032C29.469 13.351 28.2449 14.1683 27.7097 14.4426L29.6911 17.3815H26.4799L24.9939 14.6106H23.6445V17.3815H20.8433C20.849 15.8533 20.8603 12.7633 20.8603 12.6289ZM20.4331 8.64881C20.6608 9.82997 21.8611 12.1923 24.8399 12.1923H29.6396C29.8389 11.1455 29.5371 8.97125 26.7359 8.64881H20.4331Z" fill="#E5E5E5"/>
</svg>
