<svg width="34" height="26" viewBox="0 0 34 26" fill="none" xmlns="http://www.w3.org/2000/svg">
<path d="M27.749 11.5665C27.749 11.5665 28.1976 13.7254 28.2979 14.1781H26.3264C26.5212 13.6616 27.2708 11.6536 27.2708 11.6536C27.259 11.671 27.4656 11.1254 27.5837 10.7888L27.749 11.5665ZM34 2.78571V23.2143C34 24.7522 32.7309 26 31.1667 26H2.83333C1.2691 26 0 24.7522 0 23.2143V2.78571C0 1.24777 1.2691 0 2.83333 0H31.1667C32.7309 0 34 1.24777 34 2.78571ZM9.00174 17.3643L12.7323 8.35714H10.2236L7.90382 14.5089L7.65 13.2612L6.82361 9.11741C6.68785 8.54286 6.26875 8.38036 5.74931 8.35714H1.93021L1.88889 8.53705C2.82153 8.7692 3.65382 9.1058 4.37986 9.52946L6.49306 17.3643H9.00174ZM14.574 17.3759L16.0615 8.35714H13.6885L12.2069 17.3759H14.574V17.3759ZM22.8319 14.4277C22.8437 13.4004 22.2062 12.617 20.8427 11.9728C20.0104 11.5607 19.5028 11.2821 19.5028 10.8585C19.5146 10.4754 19.9337 10.0808 20.8663 10.0808C21.6396 10.0634 22.2062 10.2433 22.6312 10.4232L22.8437 10.5219L23.1684 8.57187C22.7021 8.39196 21.9583 8.18884 21.0434 8.18884C18.7 8.18884 17.0531 9.4192 17.0413 11.1719C17.0236 12.4661 18.2219 13.1857 19.1191 13.621C20.034 14.0621 20.3469 14.3522 20.3469 14.7411C20.3351 15.3446 19.6031 15.6232 18.9243 15.6232C17.9799 15.6232 17.4722 15.4781 16.699 15.1415L16.3861 14.9964L16.0556 17.0219C16.6104 17.2714 17.6375 17.492 18.7 17.5036C21.191 17.5094 22.8142 16.2964 22.8319 14.4277ZM31.1667 17.3759L29.2542 8.35714H27.4184C26.8517 8.35714 26.4208 8.51964 26.1788 9.1058L22.6549 17.3759H25.1458C25.1458 17.3759 25.5531 16.2616 25.6417 16.0237H28.6875C28.7583 16.3429 28.9708 17.3759 28.9708 17.3759H31.1667Z" fill="#E5E5E5"/>
</svg>
