<svg width="19" height="19" viewBox="0 0 19 19" fill="none" xmlns="http://www.w3.org/2000/svg">
<path d="M18.4063 7H0.593736C0.265972 7 4.13102e-08 6.55195 4.13102e-08 6C4.13102e-08 5.44796 0.266021 5 0.593736 5H18.4063C18.734 5 19 5.44805 19 6C19 6.55195 18.734 7 18.4063 7Z" fill="white"/>
<path d="M0.593736 9H18.4063C18.734 9 19 9.44805 19 10C19 10.552 18.734 11 18.4063 11H0.593736C0.265972 11 4.13102e-08 10.552 4.13102e-08 10C4.13102e-08 9.44805 0.265972 9 0.593736 9Z" fill="white"/>
<path d="M0.590895 13H12.4091C12.7353 13 13 13.448 13 14C13 14.552 12.7353 15 12.4091 15H0.590895C0.264699 15 -1.87029e-07 14.552 -1.87029e-07 14C-4.93055e-05 13.448 0.264699 13 0.590895 13Z" fill="white"/>
</svg>
