<svg width="19" height="19" viewBox="0 0 19 19" fill="none" xmlns="http://www.w3.org/2000/svg">
<g clip-path="url(#clip0)">
<path d="M18.7678 17.6486L13.3648 12.2455C14.4114 10.9527 15.0415 9.31002 15.0415 7.52088C15.0415 3.37417 11.6674 0.000106812 7.52074 0.000106812C3.37403 0.000106812 0 3.37414 0 7.52085C0 11.6676 3.37406 15.0416 7.52077 15.0416C9.30991 15.0416 10.9526 14.4115 12.2454 13.3649L17.6485 18.768C17.8028 18.9223 18.0055 18.9999 18.2082 18.9999C18.4109 18.9999 18.6135 18.9223 18.7679 18.768C19.0774 18.4584 19.0774 17.9581 18.7678 17.6486ZM7.52077 13.4583C4.24646 13.4583 1.58333 10.7952 1.58333 7.52085C1.58333 4.24653 4.24646 1.5834 7.52077 1.5834C10.7951 1.5834 13.4582 4.24653 13.4582 7.52085C13.4582 10.7952 10.795 13.4583 7.52077 13.4583Z" fill="black"/>
</g>
<defs>
<clipPath id="clip0">
<rect width="19" height="19" fill="white"/>
</clipPath>
</defs>
</svg>
